<svg xmlns="http://www.w3.org/2000/svg" viewBox="0 0 120 120" width="120" height="120">
  <defs>
    <linearGradient id="fleur" x1="0" y1="0" x2="0" y2="1">
      <stop offset="0%" stop-color="#fde047"/>
      <stop offset="100%" stop-color="#fb923c"/>
    </linearGradient>
  </defs>
  <!-- PLACEHOLDER scout-style fleur-de-lis. Replace public/logo.svg with your group's logo. -->
  <circle cx="60" cy="60" r="56" fill="#0a0820" stroke="#a855f7" stroke-width="3"/>
  <g fill="url(#fleur)" transform="translate(60 62)">
    <path d="M0 -42 C 7 -28 7 -18 0 -8 C -7 -18 -7 -28 0 -42 Z"/>
    <path d="M0 -8 C 14 -26 30 -20 30 0 C 30 16 14 22 0 12 C -14 22 -30 16 -30 0 C -30 -20 -14 -26 0 -8 Z"/>
    <path d="M0 12 L 0 34" stroke="url(#fleur)" stroke-width="7" stroke-linecap="round"/>
    <rect x="-20" y="20" width="40" height="7" rx="3.5"/>
  </g>
  <text x="60" y="112" text-anchor="middle" font-family="sans-serif" font-size="9" fill="#ffffff" opacity="0.45">your logo here</text>
</svg>
