<svg xmlns="http://www.w3.org/2000/svg" viewBox="0 0 200 200" width="200" height="200">
  <defs>
    <radialGradient id="g" cx="50%" cy="40%" r="60%">
      <stop offset="0%" stop-color="#1a1338"/>
      <stop offset="100%" stop-color="#0a0820"/>
    </radialGradient>
  </defs>
  <circle cx="100" cy="100" r="96" fill="url(#g)" stroke="#a855f7" stroke-width="3"/>
  <g transform="translate(100 118)">
    <path d="M0 -52 C 22 -22 26 -2 14 18 C 24 8 26 -8 22 -22 C 36 -2 34 26 8 42 C -4 50 -28 46 -34 24 C -40 4 -26 -8 -18 -2 C -26 -22 -10 -36 0 -52 Z" fill="#fb923c"/>
    <path d="M0 -28 C 12 -10 14 4 6 18 C -2 26 -16 22 -18 8 C -20 -6 -8 -14 -4 -8 C -8 -18 -4 -22 0 -28 Z" fill="#fde047"/>
  </g>
  <g stroke="#9a6a3a" stroke-width="7" stroke-linecap="round">
    <line x1="60" y1="172" x2="140" y2="150"/>
    <line x1="140" y1="172" x2="60" y2="150"/>
  </g>
  <text x="100" y="194" text-anchor="middle" font-family="sans-serif" font-size="11" fill="#ffffff" opacity="0.5">campfire (placeholder)</text>
</svg>
